<?xml version="1.0" standalone="no"?>
<!DOCTYPE svg PUBLIC "-//W3C//DTD SVG 20010904//EN"
 "http://www.w3.org/TR/2001/REC-SVG-20010904/DTD/svg10.dtd">
<svg version="1.0" xmlns="http://www.w3.org/2000/svg"
 width="2150.000000pt" height="2150.000000pt" viewBox="0 0 2150.000000 2150.000000"
 preserveAspectRatio="xMidYMid meet">
<metadata>
Created by potrace 1.11, written by Peter Selinger 2001-2013
</metadata>
<g transform="translate(0.000000,2150.000000) scale(0.100000,-0.100000)"
fill="#000000" stroke="none">
<path d="M19807 17104 c-1 -1 -70 -5 -154 -8 -83 -4 -160 -8 -170 -10 -10 -2
-53 -7 -96 -11 -43 -3 -86 -8 -95 -10 -9 -1 -39 -6 -67 -9 -27 -4 -86 -13
-130 -22 -44 -8 -96 -17 -115 -20 -19 -3 -53 -10 -75 -16 -22 -5 -51 -12 -65
-15 -213 -38 -644 -188 -927 -324 -57 -27 -104 -49 -107 -49 -8 0 -326 -180
-406 -230 -594 -372 -1164 -888 -1732 -1568 -89 -107 -277 -347 -381 -487 -70
-93 -130 -174 -134 -180 -5 -5 -19 -27 -33 -47 -14 -21 -28 -38 -32 -38 -5 0
-8 -4 -8 -10 0 -5 -35 -58 -77 -117 -61 -86 -369 -548 -420 -629 -6 -10 -62
-99 -124 -197 -61 -99 -122 -198 -136 -220 -13 -23 -42 -71 -63 -106 -22 -34
-40 -65 -40 -68 0 -2 -13 -23 -28 -46 -16 -23 -86 -141 -157 -262 -70 -120
-136 -233 -146 -250 -10 -16 -24 -41 -32 -55 -7 -14 -73 -131 -147 -260 -73
-129 -211 -377 -307 -550 -96 -173 -199 -358 -228 -410 -29 -52 -67 -122 -85
-155 -18 -33 -50 -89 -70 -125 -21 -36 -53 -94 -72 -130 -127 -234 -379 -690
-498 -897 l-52 -91 -78 51 c-266 176 -542 383 -1075 807 -349 278 -480 377
-739 563 -555 398 -1120 728 -1579 923 -64 27 -73 35 -124 109 -331 474 -611
750 -1033 1017 -425 269 -1038 475 -1585 533 -33 4 -71 9 -85 11 -174 29 -839
25 -1085 -6 -44 -6 -100 -13 -125 -16 -25 -3 -52 -7 -60 -9 -8 -2 -35 -7 -60
-10 -87 -12 -373 -76 -492 -111 -192 -56 -489 -163 -513 -185 -5 -5 -14 -9
-21 -9 -14 0 -209 -93 -321 -154 -233 -125 -460 -279 -668 -449 -232 -191
-478 -439 -651 -656 -11 -13 -24 -28 -29 -35 -20 -21 -152 -202 -219 -299
-208 -304 -437 -752 -568 -1112 -42 -117 -125 -366 -133 -400 -2 -11 -18 -74
-36 -140 -17 -66 -32 -127 -34 -135 -47 -218 -69 -336 -90 -487 -3 -21 -7 -51
-10 -68 -11 -76 -20 -159 -33 -325 -9 -124 -9 -637 1 -765 14 -190 26 -299 47
-425 5 -30 12 -73 15 -95 3 -22 7 -47 10 -55 2 -8 6 -33 10 -55 7 -48 75 -347
82 -358 2 -4 6 -18 9 -31 14 -81 148 -469 212 -616 165 -381 360 -716 600
-1030 52 -69 98 -127 101 -130 3 -3 31 -34 61 -70 104 -123 276 -289 480 -464
14 -12 52 -42 85 -66 33 -25 62 -47 65 -51 3 -3 50 -37 105 -75 453 -317 962
-549 1529 -699 76 -20 145 -38 155 -40 53 -12 217 -46 237 -50 156 -28 282
-48 395 -61 30 -3 65 -7 79 -10 14 -2 59 -6 100 -9 41 -4 91 -8 110 -10 185
-23 890 -23 1030 -1 14 3 60 7 103 11 43 4 88 8 100 10 12 2 71 11 131 20 59
9 118 18 130 21 11 2 46 8 76 14 66 12 81 15 140 29 25 5 56 12 70 15 46 9
221 57 336 92 327 99 741 279 1044 454 69 39 141 81 160 92 85 49 358 235 495
338 121 91 363 285 385 309 3 4 43 40 90 81 132 117 303 283 466 452 72 74
112 118 243 263 183 202 605 726 711 882 8 12 71 100 140 195 115 160 465 680
571 850 25 40 68 109 96 153 72 114 271 442 301 495 13 25 28 50 32 55 11 14
170 286 170 291 0 1 18 32 41 68 l40 64 77 -45 c141 -84 196 -113 397 -212
320 -157 692 -297 925 -346 8 -2 53 -12 100 -23 47 -11 101 -23 120 -26 19 -3
46 -8 60 -11 13 -3 42 -7 65 -10 22 -3 47 -8 55 -10 8 -2 44 -7 80 -10 36 -4
72 -8 80 -10 42 -8 262 -19 390 -19 135 0 357 11 370 18 3 2 38 7 78 10 40 4
78 9 85 11 7 3 35 7 62 9 41 4 260 43 340 60 11 3 54 12 95 21 41 9 102 23
135 31 33 9 69 18 80 20 11 2 74 19 140 38 66 18 127 35 135 37 17 4 19 -27 7
-121 -4 -30 -9 -82 -12 -115 -3 -33 -8 -71 -10 -85 -2 -14 -7 -54 -10 -90 -3
-36 -8 -81 -10 -100 -3 -19 -7 -65 -10 -102 -3 -37 -7 -75 -9 -85 -2 -10 -7
-67 -11 -128 -4 -60 -9 -118 -11 -128 -17 -96 -26 -776 -11 -892 4 -33 10 -78
13 -100 2 -22 9 -56 14 -75 5 -19 12 -51 15 -70 21 -122 115 -345 199 -475 70
-107 83 -123 191 -230 150 -150 346 -267 580 -348 159 -55 350 -98 495 -112
30 -3 66 -8 80 -10 94 -16 471 -24 560 -12 25 4 65 9 90 12 25 3 74 13 110 21
36 9 75 18 87 20 43 8 199 67 281 105 70 32 276 158 292 178 3 3 25 22 50 42
61 49 156 143 204 202 l39 48 -24 22 c-13 12 -42 35 -64 52 -22 16 -46 35 -53
42 -7 7 -39 33 -70 57 l-58 44 -17 -22 c-47 -58 -179 -184 -249 -236 -188
-142 -364 -216 -554 -235 l-62 -6 3 63 c6 105 30 417 40 513 3 22 7 69 10 105
12 151 17 200 30 312 2 24 12 108 20 188 9 80 18 161 20 180 18 168 17 157 29
245 3 22 8 63 11 90 8 71 14 120 25 200 6 39 13 93 15 120 3 28 7 61 10 75 2
14 7 45 10 70 4 25 8 56 10 70 2 14 9 63 15 110 6 47 13 96 15 110 3 14 9 61
15 105 6 44 15 103 20 130 5 28 12 73 15 100 4 28 10 75 15 105 5 30 11 69 14
85 26 175 80 509 90 565 3 14 8 43 11 65 3 22 12 81 21 130 8 50 17 104 20
120 2 17 13 80 24 140 11 61 22 128 25 150 4 22 8 47 10 55 4 14 8 34 20 113
10 59 109 605 140 767 8 41 17 91 20 110 3 19 10 53 15 75 5 22 11 54 14 70
14 79 57 302 61 315 2 8 6 33 10 55 3 22 8 47 10 55 3 8 14 62 25 120 10 58
22 116 25 130 2 14 30 149 60 300 31 151 69 338 85 415 16 77 32 155 35 172 3
18 12 63 21 100 9 38 18 77 20 88 9 51 56 271 69 327 7 35 16 74 19 88 15 75
67 318 72 333 3 10 8 34 10 54 3 20 6 39 9 43 3 5 56 238 79 351 3 13 7 33 10
44 2 11 18 83 36 160 40 181 59 264 67 295 3 14 7 32 9 40 3 14 14 70 19 96 2
5 12 46 23 90 11 43 23 97 28 119 4 22 8 45 10 50 10 39 46 194 50 210 7 34
12 55 54 235 23 96 43 182 45 190 2 8 12 51 24 95 11 44 22 91 25 105 2 14 12
57 21 95 9 39 18 77 20 85 2 8 16 62 30 120 27 104 32 126 40 165 41 186 165
649 174 647 6 -1 35 -4 64 -7 30 -3 62 -7 73 -9 10 -2 44 -7 74 -12 30 -4 57
-8 60 -9 3 -1 25 -5 50 -9 25 -4 99 -18 165 -32 66 -13 129 -26 141 -28 11 -2
74 -18 139 -35 65 -17 119 -31 121 -31 2 0 8 17 14 38 35 128 62 229 66 245 2
10 6 27 9 37 4 12 -1 19 -17 24 -100 28 -356 89 -458 110 -116 23 -144 28
-225 42 -16 3 -43 7 -60 10 -52 9 -166 23 -270 34 -55 6 -118 13 -140 15 -77
9 -512 24 -518 19z m-1788 -980 c-28 -109 -53 -206 -55 -214 -2 -8 -56 -222
-120 -475 -63 -253 -118 -471 -120 -483 -3 -13 -25 -103 -49 -200 -59 -237
-146 -602 -150 -627 -2 -11 -12 -56 -23 -100 -12 -44 -23 -91 -26 -105 -3 -14
-15 -65 -27 -115 -11 -49 -22 -98 -24 -108 -2 -10 -6 -26 -9 -35 -3 -9 -7 -28
-10 -42 -2 -14 -14 -65 -26 -115 -12 -49 -23 -98 -25 -109 -3 -10 -18 -80 -36
-155 -17 -75 -32 -143 -34 -151 -2 -8 -14 -64 -28 -125 -34 -153 -105 -474
-112 -510 -3 -16 -8 -41 -11 -55 -3 -14 -7 -33 -10 -42 -3 -9 -6 -25 -8 -35
-16 -78 -38 -184 -46 -213 -5 -19 -12 -50 -15 -69 -3 -19 -19 -98 -36 -175
-30 -139 -45 -212 -55 -271 -3 -16 -9 -46 -14 -65 -5 -19 -11 -48 -14 -65 -2
-16 -25 -131 -50 -255 -54 -268 -47 -236 -86 -440 -37 -194 -35 -179 -65 -345
-13 -71 -26 -143 -29 -160 -8 -43 -36 -205 -42 -240 -2 -16 -9 -52 -14 -80 -5
-27 -12 -66 -15 -85 -3 -19 -10 -57 -15 -85 -5 -27 -11 -66 -14 -85 -3 -19
-14 -89 -25 -155 -11 -66 -22 -138 -26 -160 -3 -22 -7 -51 -10 -65 -2 -14 -10
-68 -19 -120 -8 -52 -20 -134 -26 -182 -7 -48 -17 -91 -23 -96 -17 -13 -243
-94 -377 -135 -136 -42 -329 -90 -455 -113 -49 -9 -97 -17 -105 -19 -8 -1 -40
-6 -70 -10 -30 -4 -64 -9 -75 -11 -11 -2 -51 -6 -90 -9 -38 -3 -97 -8 -130
-10 -132 -11 -465 -5 -580 10 -16 2 -52 6 -80 10 -100 13 -264 40 -335 56 -25
6 -52 12 -60 14 -283 60 -662 202 -1010 376 -131 66 -373 199 -387 212 -3 4
125 243 235 437 58 104 104 187 118 215 8 17 25 48 37 70 13 22 45 81 72 130
26 50 51 95 55 100 4 6 25 42 45 80 91 168 384 702 511 930 45 83 95 173 111
202 15 28 46 82 67 120 21 37 52 93 69 123 102 188 489 851 563 968 19 29 34
54 34 57 0 12 377 605 505 795 145 214 180 266 190 277 5 7 33 45 60 84 45 65
357 484 397 534 39 48 319 383 340 406 13 14 57 64 98 110 122 137 445 457
587 582 347 305 706 558 1048 739 152 80 200 102 203 92 1 -6 -20 -100 -49
-210z m-12139 -2968 c74 -4 149 -9 165 -11 17 -2 57 -7 90 -10 277 -27 630
-108 893 -206 146 -54 419 -182 490 -230 24 -16 45 -29 48 -29 8 0 185 -121
254 -173 140 -108 286 -240 403 -366 51 -56 74 -93 47 -76 -5 3 -18 8 -27 10
-10 2 -43 11 -73 20 -65 18 -304 75 -340 81 -14 2 -45 8 -70 13 -105 21 -158
31 -200 36 -25 3 -56 8 -70 10 -76 13 -237 31 -395 42 -196 15 -794 7 -824
-11 -3 -2 -32 -7 -64 -10 -147 -17 -459 -90 -567 -133 -8 -3 -19 -7 -25 -8
-65 -16 -348 -145 -480 -218 -66 -37 -280 -177 -321 -210 -360 -288 -605 -566
-825 -935 -63 -106 -155 -285 -199 -387 l-19 -44 132 -41 c73 -22 142 -45 155
-50 45 -19 58 -12 77 38 51 137 195 392 318 562 109 152 318 378 448 485 49
40 229 175 234 175 3 0 37 21 77 46 80 52 320 174 341 174 7 0 17 4 23 9 15
15 269 99 382 126 244 59 484 87 756 88 130 0 406 -10 445 -18 9 -1 48 -6 86
-10 143 -14 191 -21 355 -50 74 -13 149 -27 165 -30 42 -8 344 -84 380 -95
206 -66 364 -118 426 -142 l76 -29 71 -147 c39 -81 80 -172 92 -202 11 -30 25
-64 30 -75 45 -99 139 -418 164 -555 2 -14 7 -36 10 -50 3 -14 8 -36 10 -50 2
-14 7 -41 10 -60 11 -61 14 -87 21 -146 4 -33 8 -70 11 -83 21 -139 21 -675
-1 -786 -2 -11 -7 -42 -10 -70 -6 -47 -20 -144 -31 -210 -50 -297 -161 -637
-294 -910 -88 -178 -101 -201 -196 -346 -94 -143 -165 -231 -285 -355 -97
-100 -146 -146 -234 -216 -60 -48 -250 -178 -260 -178 -2 0 -29 -15 -62 -33
-94 -53 -346 -155 -423 -172 -8 -2 -44 -11 -80 -20 -36 -9 -74 -18 -85 -20
-11 -1 -36 -5 -55 -9 -19 -3 -48 -8 -65 -11 -179 -31 -559 -25 -715 11 -14 3
-36 8 -50 10 -49 9 -166 46 -245 76 -447 175 -761 535 -839 961 -16 91 -15
330 3 446 52 342 202 620 446 827 108 92 225 162 382 228 101 42 271 88 331
89 8 0 11 10 7 31 -2 17 -7 56 -10 86 -7 79 -20 212 -24 233 -3 21 -190 -21
-360 -82 -108 -39 -322 -140 -352 -167 -8 -8 -19 -14 -22 -14 -4 0 -31 -17
-59 -37 -372 -262 -596 -613 -678 -1058 -24 -131 -33 -226 -34 -375 -1 -74 1
-153 5 -175 4 -22 10 -61 13 -87 8 -56 55 -221 85 -298 143 -357 453 -686 826
-873 88 -43 239 -103 313 -123 31 -8 80 -21 107 -29 73 -19 227 -44 325 -52
156 -12 429 -6 547 13 16 2 42 6 58 9 17 2 48 7 70 11 22 3 85 17 140 30 55
14 107 27 115 29 22 5 192 64 215 74 11 5 63 28 115 51 52 23 121 57 153 76
32 19 60 34 63 34 2 0 62 39 132 86 324 220 609 525 832 894 167 276 331 665
406 962 26 105 82 373 89 429 4 30 8 56 10 59 1 3 6 41 10 84 4 43 8 87 10 97
7 34 18 273 18 388 0 105 -9 313 -18 401 -5 50 -15 131 -20 160 -3 14 -7 48
-11 75 -3 28 -10 68 -14 90 -5 22 -12 56 -15 75 -16 92 -70 299 -112 430 -26
80 -47 147 -48 150 -3 8 -15 42 -36 94 -11 27 -17 51 -15 53 8 8 425 -228 651
-369 67 -42 356 -234 425 -283 111 -78 197 -140 270 -194 41 -31 79 -59 85
-63 5 -4 24 -18 40 -31 17 -13 80 -61 140 -107 61 -46 112 -86 115 -90 10 -11
388 -309 520 -409 74 -56 142 -107 150 -114 65 -52 392 -282 578 -406 67 -45
122 -84 122 -87 0 -7 -29 -59 -182 -319 -596 -1015 -1106 -1764 -1652 -2425
-66 -80 -123 -147 -126 -150 -4 -3 -42 -45 -85 -95 -129 -147 -151 -169 -370
-390 -212 -212 -267 -265 -384 -365 -36 -30 -72 -62 -80 -70 -136 -128 -636
-488 -821 -592 -25 -14 -89 -51 -143 -81 -119 -69 -370 -192 -492 -242 -49
-20 -99 -41 -110 -46 -237 -104 -732 -237 -1064 -285 -25 -4 -54 -8 -63 -10
-9 -1 -48 -6 -85 -10 -37 -3 -79 -8 -93 -9 -110 -14 -279 -20 -530 -19 -302 0
-425 6 -635 29 -177 20 -232 26 -250 30 -11 3 -36 7 -55 10 -19 2 -62 9 -95
15 -33 6 -73 13 -90 16 -59 10 -313 68 -385 89 -8 2 -40 11 -70 19 -299 80
-731 262 -1015 426 -211 123 -462 303 -645 465 -58 52 -283 277 -335 335 -179
204 -335 420 -472 655 -73 126 -185 343 -198 385 -4 14 -22 56 -40 95 -79 169
-212 586 -251 780 -48 244 -60 308 -69 390 -4 28 -8 57 -10 65 -2 8 -7 51 -11
95 -3 44 -8 88 -9 97 -8 42 -18 329 -18 488 1 162 4 217 19 405 6 73 50 412
59 455 3 14 12 61 21 105 58 305 201 767 319 1030 26 58 39 89 46 110 2 6 40
82 84 170 311 611 711 1108 1203 1492 384 301 805 520 1267 661 184 57 271 79
420 107 101 19 254 42 335 50 36 4 75 8 88 10 13 2 80 7 150 11 70 3 128 7
129 8 5 4 327 -2 443 -8z"/>
</g>
</svg>
